inDegrees=no
num_controls=7
num_derivatives=13
num_iterations=87
num_multipliers=7
num_parameters=0
num_slacks=7
num_states=26
objective=0.470017
objective_accelerations=0.063039
objective_balance=0.002048
objective_effort=0.020249
objective_height=0.375061
objective_ligament=0.009621
solver_duration=1203.020812
status=Solve_Succeeded
success=true
DataType=double
version=3
OpenSimVersion=4.5
endheader
time	/jointset/ground_pelvis/pelvis_tilt/value	/jointset/ground_pelvis/pelvis_tx/value	/jointset/ground_pelvis/pelvis_ty/value	/jointset/hip_l/hip_flexion_l/value	/jointset/hip_l/hip_adduction_l/value	/jointset/hip_l/hip_rotation_l/value	/jointset/back/lumbar_extension/value	/jointset/patellofemoral_l/patellar_flexion_l/value	/jointset/knee_l/knee_flexion_l/value	/jointset/knee_l/knee_adduction_l/value	/jointset/knee_l/knee_rotation_l/value	/jointset/ankle_l/ankle_angle_l/value	/jointset/subtalar_l/subtalar_angle_l/value	/jointset/ground_pelvis/pelvis_tilt/speed	/jointset/ground_pelvis/pelvis_tx/speed	/jointset/ground_pelvis/pelvis_ty/speed	/jointset/hip_l/hip_flexion_l/speed	/jointset/hip_l/hip_adduction_l/speed	/jointset/hip_l/hip_rotation_l/speed	/jointset/back/lumbar_extension/speed	/jointset/patellofemoral_l/patellar_flexion_l/speed	/jointset/knee_l/knee_flexion_l/speed	/jointset/knee_l/knee_adduction_l/speed	/jointset/knee_l/knee_rotation_l/speed	/jointset/ankle_l/ankle_angle_l/speed	/jointset/subtalar_l/subtalar_angle_l/speed	/forceset/tau_hip_flexion_l	/forceset/tau_hip_adduction_l	/forceset/tau_hip_rotation_l	/forceset/tau_knee_flexion_l	/forceset/tau_ankle_angle_l	/forceset/tau_subtalar_angle_l	/forceset/tau_lumbar_extension	lambda_cid13_p0	lambda_cid13_p1	lambda_cid13_p2	lambda_cid13_p3	lambda_cid13_p4	lambda_cid13_p5	lambda_cid14_p0	/jointset/ground_pelvis/pelvis_tilt/accel	/jointset/ground_pelvis/pelvis_tx/accel	/jointset/ground_pelvis/pelvis_ty/accel	/jointset/hip_l/hip_flexion_l/accel	/jointset/hip_l/hip_adduction_l/accel	/jointset/hip_l/hip_rotation_l/accel	/jointset/back/lumbar_extension/accel	/jointset/patellofemoral_l/patellar_flexion_l/accel	/jointset/knee_l/knee_flexion_l/accel	/jointset/knee_l/knee_adduction_l/accel	/jointset/knee_l/knee_rotation_l/accel	/jointset/ankle_l/ankle_angle_l/accel	/jointset/subtalar_l/subtalar_angle_l/accel	gamma_cid13_p0	gamma_cid13_p1	gamma_cid13_p2	gamma_cid13_p3	gamma_cid13_p4	gamma_cid13_p5	gamma_cid14_p0
1.5	-0.5549679159272896	-0.04151776309722766	0.7909361184725816	1.202357359134851	-0.3478522398292699	-0.1170333059688115	-0.3424838317773586	0.565556764434383	0.5655567644342228	-0.06012245241189224	-0.1740742014702825	0.01323969711782718	0.07821417058225542	1.073999618734567	0.4964205560419767	0.4709576221419592	-2.807722416862243	-0.003034888589416532	-0.5130988271449713	0.6018774109862366	-1.535936025649439	-1.535936025649437	-0.2142028033559431	0.00607627927605745	0.08849327567349342	0.02915739091270936	-0.2021788540641588	0.02781242909910121	0.007528499892934833	-0.06760531864489927	0.04298733763654353	-0.003021153651243807	0.1654218557526203	-10.81068412084949	0.7499089423591958	2.403691986155533	-8.476591345932588	-431.0621316298077	-50.35343714588292	-20.2067772112309	0.7840030057065882	0.8910610569575705	-0.5904993970900766	-1.764036184085162	0.2510929035176716	-0.2362472324736655	1.869912069123668	-0.5821330234106525	-0.5821330234106655	-0.3222275060707316	0.2107669571217846	0.3542040773591295	0.3665547180308464	6.933816632581306e-09	1.395077367955115e-06	-3.890857499121271e-08	2.740970874629038e-07	2.961522200010187e-07	-1.447612385256085e-07	2.419721017144348e-07
1.51	-0.544189432545772	-0.03650953650939174	0.7956152211160565	1.174194118187774	-0.3478715470528975	-0.1221767682262996	-0.3363738312824137	0.5501698765100596	0.5501698765098817	-0.06228294797779049	-0.1740049189272428	0.0141419166516598	0.07852241382654365	1.08150930262447	0.5051561128375645	0.4647583713048365	-2.824524380006233	-0.0008159922721072427	-0.5155383222114694	0.6200173061325623	-1.541245864890438	-1.54124586489044	-0.2178638316977843	0.007802655069083191	0.09194826698552527	0.03250192819209284	-0.1949524819313036	0.02687993448245505	0.007844074771013893	-0.06651785367930525	0.0405702730555238	-0.003920148759330229	0.1600662075518885	-11.43277849604733	1.084710765943218	2.538277675832441	-7.912035826918194	-427.1376062234278	-50.15547430453996	-20.71113675318249	0.7063234222351148	0.8545497258356308	-0.6502212350606843	-1.578023496371672	0.2087311489019243	-0.2392405950140913	1.770220956902355	-0.4761207108861684	-0.4761207108865912	-0.3829613675063617	0.1567363882536829	0.3408287338167052	0.3198918551055071	6.509743559921609e-08	1.313581027642075e-06	-5.075076332600825e-07	2.38519599165417e-07	4.207230838365092e-07	-1.444735670593627e-07	2.983753625167513e-07
1.52	-0.533341477857026	-0.03141600500660417	0.8002292145895523	1.1458749081859	-0.3478683766827302	-0.1273429134247323	-0.3300855932921033	0.5347357479259607	0.5347357479259069	-0.06447903800073591	-0.1739177399268335	0.01507862251375088	0.07886440016806823	1.08789388017849	0.5134815390323089	0.4579357881462753	-2.83891622782283	0.001460630167786105	-0.5176354153290258	0.6375249100594869	-1.545384157589102	-1.545384157589108	-0.2213216948102587	0.009655570776542917	0.09539054132520772	0.03590601036000723	-0.187726109798508	0.02594743986573592	0.008159649650021614	-0.06543038871377838	0.03815320847445536	-0.004819143867543763	0.1547105593511237	-12.05819861578422	1.419688116364956	2.673300567630639	-7.339933346615116	-423.2615502317357	-50.01766053516248	-21.19369555192446	0.5589817385300566	0.8090349367887749	-0.715165861377776	-1.282013118606834	0.2626381280344772	-0.1677668426852885	1.743453825243547	-0.3478237149437682	-0.3478237149437765	-0.2815944601973345	0.2360749400085947	0.3516606828891405	0.3784636957370195	9.726877972750524e-08	1.260011408236015e-06	-7.806709279363336e-07	2.149410664172016e-07	5.026887221624363e-07	-1.255377718810365e-07	3.277988710419965e-07
1.53	-0.5224350858457254	-0.02624144960396761	0.8047719041632088	1.117423804080659	-0.3478423890957946	-0.1325275561889664	-0.323625656359174	0.5192661870513768	0.5192661870512107	-0.06670941058794332	-0.1738108888784907	0.0160495097817162	0.07924041884152512	1.093210454224066	0.5213419719563637	0.4505002303138063	-2.85088620723373	0.003723048276862356	-0.5191821419617543	0.6543418490972485	-1.54830895405764	-1.548308954057644	-0.224772191273885	0.01176371568755591	0.09877201188496565	0.03927906406352762	-0.1808909496979581	0.02508249903049647	0.008478884473271742	-0.06367476602534911	0.0346972097421389	-0.005760683208770005	0.1495534435142075	-13.03162836044974	1.801481821043067	2.838089784116574	-6.421382671533485	-419.4921689841104	-49.7468200846773	-21.65187621963191	0.4919196330772842	0.7614517019497393	-0.7729233783596315	-1.091687991841153	0.2058478247782401	-0.1312050197563405	1.632719828706094	-0.2320139133447217	-0.2320139133444658	-0.379496710690428	0.2053250474724932	0.3291883784148754	0.3138386381910688	1.018233318400525e-07	1.236113929793623e-06	-8.461837237954297e-07	2.041114239400871e-07	5.393863083844528e-07	-8.678834525862513e-08	3.285563927728538e-07
1.54	-0.5114807432148674	-0.0209909090257428	0.8092372036317046	1.08886556065341	-0.3477942164932907	-0.13772428210876	-0.3170011688587344	0.5037739369519095	0.5037739369517918	-0.06897483203382124	-0.1736815282250124	0.01705377138245802	0.07964959053812305	1.097484004089873	0.5286785741499601	0.4424577671142781	-2.86034409222498	0.005897633283306075	-0.5200520464420835	0.6704350235615389	-1.549922002547617	-1.549922002547619	-0.2283314665873294	0.01415749183157003	0.1020654078805454	0.04253661498830483	-0.1740557895973925	0.02421755819525467	0.008798119297462999	-0.06191914333696045	0.03124121100980853	-0.006702222550010538	0.1443963276773071	-14.00816885734264	2.183776369655996	3.002850001542706	-5.496920015632354	-415.7681869087465	-49.53557695354981	-22.08590765187526	0.3503769025763844	0.7042687906970186	-0.8365469347896028	-0.7795942346765746	0.2450715075079443	-0.03240241220546319	1.59870091054941	-0.08547411923166114	-0.08547411923166373	-0.3033502301609384	0.2932011866088299	0.3340457700533982	0.3553631399883729	1.017107640254494e-07	1.271038546762756e-06	-8.625853460040135e-07	2.013358336674903e-07	5.749721760144142e-07	-5.073289710536685e-08	3.309766701674646e-07
